<svg width="162" height="201" viewBox="0 0 162 201" fill="none" xmlns="http://www.w3.org/2000/svg">
<g clip-path="url(#clip0_2079_2)">
<mask id="mask0_2079_2" style="mask-type:luminance" maskUnits="userSpaceOnUse" x="0" y="0" width="162" height="201">
<path d="M161.67 0H0V200.937H161.67V0Z" fill="white"/>
</mask>
<g mask="url(#mask0_2079_2)">
<path d="M75.375 0C33.744 0 0 33.744 0 75.375C0 101.329 13.154 124.124 33.125 137.656C32.126 139.902 31.563 142.835 31.562 146.875C31.562 151.524 32.687 158.458 35.281 163.031C35.419 163.273 35.665 163.587 35.813 163.844C33.48 166.878 31.304 170.718 29.375 173.656C25.061 180.225 21.982 183.586 22.031 185.062C22.027 185.128 22.061 185.157 22.062 185.219C22.067 185.402 22.097 185.546 22.156 185.687C22.179 185.788 22.326 185.894 22.375 186C23.297 187.995 28.409 190.828 31.562 193.219C36.431 196.909 40.476 200.5 42.312 200.5C45.455 200.5 49.993 200.817 49.719 199.219C49.542 198.191 39.785 194.673 34.906 190.906C33.156 189.555 32.469 187.77 32.469 186.625C32.469 186.008 32.73 184.058 34.719 182.906C35.497 182.456 36.401 182.158 37.312 181.75C39.828 180.954 42.43 180.164 44.344 179C47.5 177.08 49.508 174.894 50.313 173.375C50.327 173.359 50.329 173.328 50.344 173.312C54.312 169.07 57.071 159.822 57.094 152.719C57.717 153.131 57.781 154.118 57.844 155.312C58.202 162.171 56.057 171.149 52.531 175.781C52.733 177.979 53.073 179.897 53.531 181.625C53.541 181.662 53.552 181.712 53.563 181.75C53.852 183.975 54.173 186.176 54.062 187.719C53.636 193.663 51.654 193.797 52.719 195.687C53.756 197.53 55.865 197.081 59 197.343C64.623 197.815 78.147 202.753 75.937 198.656C74.508 196.006 73.397 196.243 69.437 195.375C65.889 194.597 60.363 193.681 59.656 191.187C58.749 187.989 63.142 183.305 64.406 180.187C64.41 180.178 64.403 180.165 64.406 180.156C67.476 174.362 70.173 166.46 70.625 160.156C70.743 158.519 70.553 157.319 70.469 155.969C75.707 159.389 78.249 162.912 82.656 165.781C85.381 167.555 88.357 168.752 91.25 169.531C91.185 170.591 91.236 171.564 91.375 172.469C91.394 172.944 91.507 173.467 91.781 174.062C93.494 177.79 99.662 183.5 102.625 186.437C105.026 188.818 111.444 192.03 111.75 195.094C112.033 197.931 114.078 200.937 118.437 200.937C127.503 200.937 117.512 195.567 113 189.375C110.842 186.413 104.85 179.92 103 173.719C104.785 172.599 106.52 171.191 108.25 169.5C108.255 169.495 108.276 169.505 108.281 169.5C109.884 169.074 111.411 168.547 112.844 167.906C112.802 168.415 112.625 169.037 112.625 169.5C112.625 176.17 118.372 177.405 122.969 178.75C122.993 178.757 123.007 178.743 123.031 178.75C125.652 180.239 129.026 181.671 131.406 182.719C134.337 184.008 140.242 185.584 142.094 187.062C143.401 188.106 143.543 192.664 145.125 194.437C146.741 196.249 148.579 195.759 149 194.312C149.367 193.052 149.522 188.415 145.781 185.031C144.228 183.626 141.798 182.602 139.875 181.5C137.499 180.138 135.344 178.781 133.594 177.625C130.746 175.743 128.407 174.021 126.281 172.656C126.295 170.239 126.219 167.664 126.219 165.094C126.219 161.826 125.469 159.465 125.773 156.656C125.958 154.95 129.321 146.687 132.563 146.562C135.639 146.444 139.424 145.779 141.75 143.312C142.293 142.736 142.235 141.64 142.594 140.844C143.112 139.693 143.888 138.689 143.781 136.906C143.682 135.254 141.546 134.21 141.719 133.094C142.787 126.187 137.58 119.062 129.844 119.062C125.989 119.062 121.383 120.393 118.594 123.187C115.785 126.001 115.309 133.207 108.75 134.5C108.651 134.519 108.591 134.594 108.5 134.625C108.383 134.6 108.203 134.446 108.094 134.437C102.028 133.929 97.032 130.005 92.062 126.406C90.967 125.612 89.884 124.776 88.781 124.062C87.514 123.243 86.218 122.563 84.906 121.969C78.713 118.861 71.011 116.687 63 116.687C55.652 116.687 49.434 118.051 44.562 120.219C27.619 109.849 16.281 91.239 16.281 69.906C16.281 37.259 42.729 10.781 75.375 10.781C77.257 10.781 79.101 10.89 80.937 11.062C87.969 11.721 94.62 13.658 100.719 16.562C103.006 15.754 104.721 14.429 105.156 12.594C106.047 8.83801 101.651 4.62901 95.281 2.71901C94.546 2.51701 93.807 2.33501 93.063 2.15601C87.379 0.787006 81.479 0 75.375 0ZM123.781 127.656C124.294 127.764 124.731 128.078 125.219 128.562C125.265 128.608 125.683 129.036 125.969 129.156C126.383 129.331 126.478 129.38 126.969 129.281C127.15 129.244 128.235 129.272 128.313 129.875C128.332 130.025 127.647 130.306 127.577 130.321C126.916 130.469 126.294 130.477 125.608 130.227C125.239 130.093 124.53 129.676 124.483 129.634C123.98 129.187 123.548 128.785 122.452 129.227C121.315 129.687 120.887 131.659 120.691 133.061C120.221 136.433 120.565 139.283 122.722 141.405C123.845 142.509 125.46 142.637 126.656 141.951C126.76 141.891 127.15 141.64 127.438 141.42C127.616 141.283 127.743 141.172 127.844 141.076C127.891 141.031 128.271 140.67 128.406 140.75C128.87 141.024 128.569 141.534 128.469 141.719C128.244 142.134 127.849 142.508 127.156 142.906C125.563 143.821 122.369 143.724 121.25 142.406C119.1 139.874 118.579 136.693 119.062 133.062C119.501 129.767 120.985 128.353 121.937 127.969C122.695 127.662 123.269 127.548 123.781 127.656Z" fill="url(#paint0_linear_2079_2)"/>
<path d="M65.829 67.793C65.829 62.092 70.45 57.471 76.151 57.471C81.852 57.471 86.473 62.092 86.473 67.793C86.473 73.493 81.852 78.115 76.151 78.115C70.45 78.115 65.829 73.493 65.829 67.793Z" fill="#D7B66F"/>
<path d="M64.996 81.018C64.996 80.114 65.73 79.38 66.634 79.38C67.539 79.38 68.272 80.114 68.272 81.018C68.272 81.923 67.539 82.656 66.634 82.656C65.73 82.656 64.996 81.923 64.996 81.018Z" fill="#CAB97B"/>
<path d="M97.223 60.073C97.223 58.721 98.319 57.625 99.671 57.625C101.022 57.625 102.118 58.721 102.118 60.073C102.118 61.425 101.022 62.521 99.671 62.521C98.319 62.521 97.223 61.425 97.223 60.073Z" fill="#B1AF7D"/>
<path d="M73.069 38.447C73.069 37.095 74.165 35.999 75.517 35.999C76.869 35.999 77.965 37.095 77.965 38.447C77.965 39.799 76.869 40.895 75.517 40.895C74.165 40.895 73.069 39.799 73.069 38.447Z" fill="#9EA77E"/>
<path d="M75.721 102.456C75.721 101.104 76.817 100.008 78.168 100.008C79.52 100.008 80.616 101.104 80.616 102.456C80.616 103.807 79.52 104.903 78.168 104.903C76.817 104.903 75.721 103.807 75.721 102.456Z" fill="#8B9F80"/>
<path d="M106.579 34.748C106.579 31.654 109.087 29.146 112.181 29.146C115.275 29.146 117.783 31.654 117.783 34.748C117.783 37.842 115.275 40.35 112.181 40.35C109.087 40.35 106.579 37.842 106.579 34.748Z" fill="#688F84"/>
<path d="M148.389 93.536C148.389 90.828 150.585 88.632 153.294 88.632C156.002 88.632 158.198 90.828 158.198 93.536C158.198 96.245 156.002 98.441 153.294 98.441C150.585 98.441 148.389 96.245 148.389 93.536Z" fill="#457E85"/>
<path d="M76.156 42.125C61.988 42.125 50.5 53.613 50.5 67.781C50.5 81.949 61.988 93.437 76.156 93.437C90.324 93.437 101.813 81.949 101.813 67.781C101.813 66.512 101.714 65.27 101.531 64.031C101.471 63.621 101.097 63.346 100.687 63.406C100.278 63.466 99.971 63.84 100.031 64.25C100.203 65.417 100.312 66.586 100.313 67.781C100.313 81.121 89.496 91.937 76.156 91.937C62.817 91.937 52 81.121 52 67.781C52 54.441 62.817 43.625 76.156 43.625C85.209 43.625 93.377 48.669 97.531 56.531C97.725 56.897 98.165 57.037 98.531 56.844C98.897 56.65 99.037 56.179 98.844 55.812C94.432 47.464 85.771 42.125 76.156 42.125Z" fill="url(#paint1_linear_2079_2)"/>
<path d="M76.156 50.781C66.767 50.781 59.156 58.392 59.156 67.781C59.156 72.201 60.858 76.361 63.844 79.5C64.129 79.8 64.606 79.816 64.906 79.531C65.206 79.246 65.192 78.769 64.906 78.469C62.184 75.606 60.656 71.812 60.656 67.781C60.656 59.221 67.596 52.281 76.156 52.281C84.717 52.281 91.656 59.221 91.656 67.781C91.656 76.341 84.717 83.281 76.156 83.281C73.9 83.281 71.724 82.824 69.719 81.906C69.342 81.734 68.891 81.873 68.719 82.25C68.546 82.626 68.717 83.077 69.094 83.25C71.294 84.258 73.684 84.781 76.156 84.781C85.545 84.781 93.156 77.17 93.156 67.781C93.156 58.392 85.545 50.781 76.156 50.781Z" fill="url(#paint2_linear_2079_2)"/>
<path d="M79.563 37.875C79.151 37.828 78.765 38.119 78.719 38.531C78.672 38.943 78.963 39.328 79.375 39.375C93.758 40.993 104.75 53.189 104.75 67.781C104.75 83.577 91.953 96.406 76.156 96.406C60.36 96.406 47.563 83.577 47.563 67.781C47.563 53.628 57.908 41.675 71.75 39.531C72.159 39.468 72.438 39.097 72.375 38.687C72.312 38.278 71.909 37.999 71.5 38.062C56.93 40.319 46.063 52.886 46.063 67.781C46.063 84.406 59.531 97.906 76.156 97.906C92.781 97.906 106.25 84.406 106.25 67.781C106.25 52.423 94.702 39.579 79.563 37.875Z" fill="url(#paint3_linear_2079_2)"/>
<path d="M76.156 32.375C56.599 32.375 40.75 48.224 40.75 67.781C40.75 86.449 55.25 101.89 73.781 103.125C74.195 103.152 74.566 102.851 74.594 102.437C74.621 102.024 74.288 101.652 73.875 101.625C56.131 100.442 42.25 85.658 42.25 67.781C42.25 49.052 57.427 33.875 76.156 33.875C94.885 33.875 110.094 49.052 110.094 67.781C110.094 79.823 103.759 90.56 94.092 96.595C90.519 98.826 86.489 100.414 82.156 101.187C81.748 101.26 81.49 101.623 81.563 102.031C81.635 102.439 82.03 102.729 82.437 102.656C90.75 101.172 97.988 96.82 103.172 90.709C108.444 84.496 111.594 76.465 111.594 67.781C111.594 48.224 95.714 32.375 76.156 32.375Z" fill="url(#paint4_linear_2079_2)"/>
<path d="M76.156 18.156C48.735 18.156 26.5 40.36 26.5 67.781C26.5 95.202 48.735 117.437 76.156 117.437C103.577 117.437 125.812 95.202 125.813 67.781C125.813 57.968 122.961 48.588 117.687 40.562C117.46 40.216 116.971 40.116 116.625 40.344C116.279 40.571 116.179 41.029 116.406 41.375C121.52 49.158 124.313 58.263 124.313 67.781C124.313 94.373 102.749 115.937 76.156 115.937C49.564 115.937 28 94.374 28 67.781C28 41.189 49.564 19.656 76.156 19.656C87.066 19.656 97.404 23.287 105.812 29.875C106.139 30.13 106.62 30.076 106.875 29.75C107.13 29.424 107.076 28.943 106.75 28.687C98.08 21.894 87.404 18.156 76.156 18.156Z" fill="url(#paint5_linear_2079_2)"/>
<path d="M151.156 100C150.777 99.833 150.323 100.027 150.156 100.406C147.392 106.672 143.841 112.537 139.594 117.906C139.337 118.231 139.394 118.711 139.719 118.969C140.044 119.225 140.524 119.168 140.781 118.843C145.107 113.376 148.716 107.382 151.531 101C151.698 100.621 151.535 100.167 151.156 100Z" fill="url(#paint6_linear_2079_2)"/>
<path d="M140.719 17.875C140.389 18.125 140.343 18.607 140.594 18.937C151.189 32.889 157 49.886 157 67.781C157 73.902 156.335 79.947 155 85.812C154.908 86.216 155.159 86.627 155.563 86.719C155.966 86.81 156.346 86.56 156.437 86.156C157.797 80.181 158.5 74.015 158.5 67.781C158.5 49.556 152.573 32.241 141.781 18.031C141.531 17.701 141.049 17.624 140.719 17.875Z" fill="url(#paint7_linear_2079_2)"/>
<path d="M160.281 86.937C158.593 87.195 155.542 89.086 151.875 91.906C146.986 95.666 143.968 98.78 144.906 100C145.844 101.22 149.642 99.103 154.531 95.343C159.42 91.584 162.438 88.47 161.5 87.25C161.265 86.945 160.844 86.851 160.281 86.937ZM159.5 88.75C159.258 89.047 159.086 89.309 158.719 89.687C157.473 90.971 155.636 92.555 153.594 94.125C151.552 95.695 149.56 97.063 148 97.937C147.542 98.194 147.256 98.311 146.906 98.468C147.148 98.171 147.321 97.909 147.687 97.531C148.934 96.248 150.739 94.664 152.781 93.093C154.823 91.523 156.846 90.156 158.406 89.281C158.864 89.024 159.151 88.907 159.5 88.75Z" fill="#457E85"/>
</g>
</g>
<defs>
<linearGradient id="paint0_linear_2079_2" x1="78.213" y1="91.102" x2="80.4759" y2="194.595" gradientUnits="userSpaceOnUse">
<stop stop-color="#458385"/>
<stop offset="1" stop-color="#2A676F"/>
</linearGradient>
<linearGradient id="paint1_linear_2079_2" x1="99.959" y1="60.23" x2="52.9188" y2="72.9233" gradientUnits="userSpaceOnUse">
<stop stop-color="#B1AF7D"/>
<stop offset="1" stop-color="#CAB97B" stop-opacity="0"/>
</linearGradient>
<linearGradient id="paint2_linear_2079_2" x1="66.179" y1="81.413" x2="85.6568" y2="55.7993" gradientUnits="userSpaceOnUse">
<stop stop-color="#CAB97B"/>
<stop offset="1" stop-color="#CAB97B" stop-opacity="0"/>
</linearGradient>
<linearGradient id="paint3_linear_2079_2" x1="75.856" y1="38.125" x2="77.0854" y2="94.5066" gradientUnits="userSpaceOnUse">
<stop stop-color="#9EA77E"/>
<stop offset="1" stop-color="#9EA77E" stop-opacity="0"/>
</linearGradient>
<linearGradient id="paint4_linear_2079_2" x1="78.41" y1="103.724" x2="73.0813" y2="36.2472" gradientUnits="userSpaceOnUse">
<stop stop-color="#8B9F80"/>
<stop offset="1" stop-color="#8B9F80" stop-opacity="0"/>
</linearGradient>
<linearGradient id="paint5_linear_2079_2" x1="111.943" y1="34.831" x2="74.9509" y2="114.484" gradientUnits="userSpaceOnUse">
<stop stop-color="#688F84"/>
<stop offset="1" stop-color="#688F84" stop-opacity="0"/>
</linearGradient>
<linearGradient id="paint6_linear_2079_2" x1="150.898" y1="100.176" x2="138.83" y2="120.15" gradientUnits="userSpaceOnUse">
<stop stop-color="#457E85"/>
<stop offset="1" stop-color="#457E85" stop-opacity="0"/>
</linearGradient>
<linearGradient id="paint7_linear_2079_2" x1="154.033" y1="94.015" x2="142.508" y2="19.8712" gradientUnits="userSpaceOnUse">
<stop stop-color="#457E85"/>
<stop offset="1" stop-color="#457E85" stop-opacity="0"/>
</linearGradient>
<clipPath id="clip0_2079_2">
<rect width="161.67" height="200.937" fill="white"/>
</clipPath>
</defs>
</svg>
